<svg width="800" height="460" viewBox="0 0 800 460" fill="none" xmlns="http://www.w3.org/2000/svg">
  <!-- Background -->
  <rect width="800" height="460" fill="#1C2529"/>

  <!-- Subtle grid -->
  <line x1="0" y1="115" x2="800" y2="115" stroke="rgba(245,237,232,0.05)" stroke-width="1"/>
  <line x1="0" y1="230" x2="800" y2="230" stroke="rgba(245,237,232,0.05)" stroke-width="1"/>
  <line x1="0" y1="345" x2="800" y2="345" stroke="rgba(245,237,232,0.05)" stroke-width="1"/>
  <line x1="200" y1="0" x2="200" y2="460" stroke="rgba(245,237,232,0.05)" stroke-width="1"/>
  <line x1="400" y1="0" x2="400" y2="460" stroke="rgba(245,237,232,0.05)" stroke-width="1"/>
  <line x1="600" y1="0" x2="600" y2="460" stroke="rgba(245,237,232,0.05)" stroke-width="1"/>

  <!-- Label -->
  <text x="48" y="62" font-family="'Helvetica Neue', sans-serif" font-size="11" font-weight="600" letter-spacing="0.12em" fill="rgba(239,70,35,0.7)" text-transform="uppercase">DESIGN SYSTEM</text>

  <!-- Color tokens row -->
  <rect x="48" y="82" width="32" height="32" rx="8" fill="#EF4623"/>
  <rect x="88" y="82" width="32" height="32" rx="8" fill="#2D3B42"/>
  <rect x="128" y="82" width="32" height="32" rx="8" fill="#FDF1EE"/>
  <rect x="168" y="82" width="32" height="32" rx="8" fill="#F4694A"/>
  <rect x="208" y="82" width="32" height="32" rx="8" fill="#3F5560"/>

  <!-- Primary button component -->
  <rect x="48" y="148" width="160" height="44" rx="22" fill="#EF4623"/>
  <text x="128" y="175" font-family="'Helvetica Neue', sans-serif" font-size="13" font-weight="600" fill="white" text-anchor="middle">Button</text>

  <!-- Secondary button -->
  <rect x="220" y="148" width="140" height="44" rx="22" fill="none" stroke="rgba(245,237,232,0.25)" stroke-width="1.5"/>
  <text x="290" y="175" font-family="'Helvetica Neue', sans-serif" font-size="13" font-weight="500" fill="rgba(245,237,232,0.6)" text-anchor="middle">Outline</text>

  <!-- Input field -->
  <rect x="48" y="216" width="312" height="44" rx="12" fill="rgba(255,255,255,0.05)" stroke="rgba(245,237,232,0.15)" stroke-width="1.5"/>
  <text x="68" y="243" font-family="'Helvetica Neue', sans-serif" font-size="13" fill="rgba(245,237,232,0.35)">Placeholder text...</text>

  <!-- Badge / pill -->
  <rect x="48" y="284" width="72" height="26" rx="13" fill="rgba(239,70,35,0.15)"/>
  <text x="84" y="301" font-family="'Helvetica Neue', sans-serif" font-size="11" font-weight="600" fill="#EF4623" text-anchor="middle">Label</text>

  <rect x="132" y="284" width="60" height="26" rx="13" fill="rgba(245,237,232,0.08)"/>
  <text x="162" y="301" font-family="'Helvetica Neue', sans-serif" font-size="11" font-weight="600" fill="rgba(245,237,232,0.5)" text-anchor="middle">Tag</text>

  <rect x="204" y="284" width="80" height="26" rx="13" fill="rgba(239,70,35,0.08)"/>
  <text x="244" y="301" font-family="'Helvetica Neue', sans-serif" font-size="11" font-weight="600" fill="#F4694A" text-anchor="middle">Status</text>

  <!-- Card component on right -->
  <rect x="420" y="48" width="332" height="180" rx="20" fill="rgba(255,255,255,0.04)" stroke="rgba(239,70,35,0.12)" stroke-width="1"/>
  <rect x="444" y="72" width="80" height="80" rx="12" fill="rgba(239,70,35,0.12)"/>
  <rect x="540" y="78" width="130" height="12" rx="6" fill="rgba(245,237,232,0.18)"/>
  <rect x="540" y="100" width="100" height="10" rx="5" fill="rgba(245,237,232,0.1)"/>
  <rect x="540" y="118" width="115" height="10" rx="5" fill="rgba(245,237,232,0.1)"/>
  <rect x="444" y="170" width="80" height="30" rx="15" fill="#EF4623"/>
  <rect x="536" y="170" width="60" height="30" rx="15" fill="rgba(255,255,255,0.06)" stroke="rgba(245,237,232,0.15)" stroke-width="1"/>

  <!-- Icon grid -->
  <rect x="420" y="252" width="72" height="72" rx="16" fill="rgba(255,255,255,0.04)" stroke="rgba(239,70,35,0.12)" stroke-width="1"/>
  <circle cx="456" cy="282" r="14" fill="rgba(239,70,35,0.2)"/>
  <circle cx="456" cy="282" r="6" fill="#EF4623"/>

  <rect x="504" y="252" width="72" height="72" rx="16" fill="rgba(255,255,255,0.04)" stroke="rgba(239,70,35,0.12)" stroke-width="1"/>
  <rect x="520" y="272" width="40" height="6" rx="3" fill="rgba(245,237,232,0.2)"/>
  <rect x="520" y="285" width="32" height="6" rx="3" fill="rgba(245,237,232,0.12)"/>
  <rect x="520" y="298" width="36" height="6" rx="3" fill="rgba(245,237,232,0.12)"/>

  <rect x="588" y="252" width="72" height="72" rx="16" fill="rgba(255,255,255,0.04)" stroke="rgba(239,70,35,0.12)" stroke-width="1"/>
  <rect x="604" y="268" width="40" height="22" rx="6" fill="rgba(239,70,35,0.15)"/>
  <rect x="604" y="298" width="28" height="8" rx="4" fill="rgba(239,70,35,0.5)"/>

  <rect x="672" y="252" width="72" height="72" rx="16" fill="rgba(239,70,35,0.08)" stroke="rgba(239,70,35,0.2)" stroke-width="1"/>
  <circle cx="708" cy="276" r="10" fill="none" stroke="#EF4623" stroke-width="2"/>
  <line x1="708" y1="291" x2="708" y2="308" stroke="#EF4623" stroke-width="2" stroke-linecap="round"/>

  <!-- Typography sample -->
  <text x="48" y="380" font-family="Georgia, serif" font-style="italic" font-size="42" fill="rgba(245,237,232,0.85)" letter-spacing="-0.02em">Aa</text>
  <text x="120" y="370" font-family="'Helvetica Neue', sans-serif" font-size="11" fill="rgba(245,237,232,0.35)" letter-spacing="0.05em">Instrument Serif</text>
  <text x="120" y="386" font-family="'Helvetica Neue', sans-serif" font-size="28" font-weight="300" fill="rgba(245,237,232,0.6)" letter-spacing="-0.01em">Aa</text>

  <!-- Spacing tokens -->
  <rect x="420" y="352" width="4" height="4" rx="1" fill="rgba(239,70,35,0.6)"/>
  <rect x="428" y="348" width="4" height="8" rx="1" fill="rgba(239,70,35,0.6)"/>
  <rect x="436" y="344" width="4" height="12" rx="1" fill="rgba(239,70,35,0.6)"/>
  <rect x="444" y="340" width="4" height="16" rx="1" fill="rgba(239,70,35,0.6)"/>
  <rect x="452" y="336" width="4" height="20" rx="1" fill="rgba(239,70,35,0.8)"/>
  <rect x="460" y="332" width="4" height="24" rx="1" fill="#EF4623"/>
  <text x="420" y="408" font-family="'Helvetica Neue', sans-serif" font-size="10" fill="rgba(245,237,232,0.3)" letter-spacing="0.08em">SPACING SCALE</text>

  <!-- Bottom coral glow -->
  <ellipse cx="400" cy="520" rx="300" ry="80" fill="rgba(239,70,35,0.06)"/>
</svg>
